<?xml version="1.0" encoding="windows-1252"?>
<!-- Uploaded to: SVG Repo, www.svgrepo.com, Generator: SVG Repo Mixer Tools -->
<svg height="800px" width="800px" version="1.1" id="Layer_1" xmlns="http://www.w3.org/2000/svg" xmlns:xlink="http://www.w3.org/1999/xlink" viewBox="0 0 512 512" xml:space="preserve">
<path style="fill:#D4A8B4;" d="M401.62,422.029c-1.102,0-2.189,0.057-3.267,0.149v-135.76h-64.95v182.339  c0,16.041,13.005,29.046,29.046,29.046c0,0,38.069,0,39.171,0c20.925,0,37.888-16.963,37.888-37.888  C439.508,438.991,422.545,422.029,401.62,422.029z"/>
<g>
	<path style="fill:#3C1146;" d="M401.622,512h-39.173c-23.844,0-43.243-19.399-43.243-43.243V286.418   c0-7.84,6.357-14.197,14.197-14.197h64.95c7.84,0,14.197,6.357,14.197,14.197v122.566c23.491,5.036,41.155,25.959,41.155,50.931   C453.705,488.636,430.341,512,401.622,512z M347.6,300.615v168.142c0,8.189,6.66,14.849,14.849,14.849h39.173   c13.063,0,23.691-10.626,23.691-23.691s-10.626-23.691-23.691-23.691c-0.619,0-1.288,0.031-2.049,0.097   c-3.955,0.349-7.885-0.994-10.817-3.684c-2.93-2.689-4.598-6.482-4.598-10.46V300.614H347.6V300.615z"/>
	<path style="fill:#3C1146;" d="M419.878,300.629h-86.475c-7.84,0-14.197-6.357-14.197-14.197c0-7.84,6.357-14.197,14.197-14.197   h86.475c7.84,0,14.197,6.357,14.197,14.197C434.075,294.272,427.717,300.629,419.878,300.629z"/>
	<path style="fill:#3C1146;" d="M420.433,301.673c-7.723,0-14.051-6.191-14.189-13.944c-1.914-107.75-30.999-190.352-55.91-237.035   l-12.476,52.735v120.634c0,7.84-6.357,14.197-14.197,14.197c-7.84,0-14.197-6.357-14.197-14.197V101.772   c0-1.1,0.128-2.198,0.382-3.27l20.719-87.575c1.272-5.372,5.543-9.521,10.95-10.635c5.408-1.113,10.972,1.007,14.264,5.44   c28.105,37.842,76.339,139.715,78.854,281.49c0.141,7.84-6.103,14.308-13.942,14.447   C420.605,301.671,420.518,301.673,420.433,301.673z"/>
</g>
<path style="fill:#D4A8B4;" d="M140.709,422.029c-1.102,0-2.189,0.057-3.267,0.149v-135.76h-64.95v182.339  c0,16.041,13.005,29.046,29.046,29.046c0,0,38.07,0,39.171,0c20.925,0,37.888-16.963,37.888-37.888  C178.597,438.991,161.634,422.029,140.709,422.029z"/>
<g>
	<path style="fill:#3C1146;" d="M140.709,512h-39.171c-23.844,0-43.243-19.399-43.243-43.243V286.418   c0-7.84,6.357-14.197,14.197-14.197h64.95c7.84,0,14.197,6.357,14.197,14.197v122.566c23.491,5.036,41.155,25.959,41.155,50.931   C192.794,488.636,169.43,512,140.709,512z M86.689,300.615v168.142c0,8.189,6.661,14.849,14.849,14.849h39.173   c13.063,0,23.691-10.626,23.691-23.691s-10.627-23.691-23.691-23.691c-0.619,0-1.288,0.031-2.049,0.097   c-3.952,0.349-7.886-0.994-10.817-3.684c-2.93-2.689-4.598-6.482-4.598-10.46V300.614H86.689V300.615z"/>
	<path style="fill:#3C1146;" d="M194.025,300.615c-7.84,0-14.197-6.357-14.197-14.197c0-7.84,6.357-14.197,14.197-14.197   c11.402,0,20.846-8.917,21.5-20.302l12.349-215.234c0.168-2.935-1.262-4.914-2.128-5.832c-0.866-0.917-2.76-2.458-5.703-2.458   H108.223c-11.873,0-21.534,9.661-21.534,21.534v222.293h48.083c7.84,0,14.197,6.357,14.197,14.197   c0,7.84-6.357,14.197-14.197,14.197h-62.28c-7.84,0-14.197-6.357-14.197-14.197V49.928C58.295,22.397,80.692,0,108.223,0h111.821   c9.927,0,19.531,4.14,26.347,11.358c6.816,7.219,10.399,17.042,9.832,26.953l-12.349,215.235   C242.356,279.941,220.461,300.615,194.025,300.615z"/>
	<path style="fill:#3C1146;" d="M119.865,89.893c-7.84,0-14.197-6.357-14.197-14.197v-9.464c0-7.84,6.357-14.197,14.197-14.197   s14.197,6.357,14.197,14.197v9.464C134.062,83.537,127.704,89.893,119.865,89.893z"/>
</g>
</svg>