<?xml version="1.0" encoding="windows-1252"?>
<!-- Uploaded to: SVG Repo, www.svgrepo.com, Generator: SVG Repo Mixer Tools -->
<svg height="800px" width="800px" version="1.1" id="Layer_1" xmlns="http://www.w3.org/2000/svg" xmlns:xlink="http://www.w3.org/1999/xlink" viewBox="0 0 512.001 512.001" xml:space="preserve">
<path style="fill:#D4A8B4;" d="M88.134,247.333H48.056c-18.82,0-34.218,15.399-34.218,34.218l0,0  c0,18.821,15.397,34.218,34.218,34.218h46.107L88.134,247.333z"/>
<g>
	<path style="fill:#3C1146;" d="M94.163,329.609H48.058C21.558,329.609,0,308.051,0,281.551c0-26.498,21.558-48.056,48.058-48.056   h40.076c7.172,0,13.156,5.48,13.785,12.624l6.028,68.438c0.34,3.866-0.959,7.698-3.58,10.56   C101.746,327.979,98.044,329.609,94.163,329.609z M48.058,261.171c-11.238,0-20.382,9.143-20.382,20.38s9.143,20.382,20.382,20.382   h30.994l-3.591-40.762H48.058z"/>
	<path style="fill:#3C1146;" d="M347.838,473.09H164.162c-18.851,0-36.889-7.012-50.792-19.744   c-13.877-12.709-22.438-30.02-24.115-48.758l-9.325-91.135c-0.779-7.603,4.756-14.397,12.359-15.175   c7.604-0.769,14.396,4.756,15.175,12.357l9.335,91.225c0.007,0.065,0.012,0.13,0.018,0.195   c2.178,24.719,22.532,43.358,47.348,43.358h183.676c24.816,0,45.17-18.641,47.348-43.358c0.004-0.058,0.01-0.115,0.017-0.173   l9.213-91.42c0.767-7.603,7.547-13.142,15.155-12.381c7.604,0.767,13.146,7.553,12.379,15.157l-9.204,91.337   c-1.674,18.743-10.236,36.062-24.117,48.772C384.727,466.08,366.69,473.09,347.838,473.09z"/>
</g>
<path style="fill:#D4A8B4;" d="M463.944,247.333h-40.077l-6.029,68.438h46.107c18.821,0,34.218-15.399,34.218-34.218l0,0  C498.162,262.731,482.763,247.333,463.944,247.333z"/>
<path style="fill:#3C1146;" d="M463.944,329.609h-46.105c-3.882,0-7.583-1.63-10.205-4.492c-2.621-2.863-3.92-6.693-3.58-10.56  l6.028-68.438c0.63-7.145,6.613-12.624,13.785-12.624h40.077c26.498,0,48.058,21.558,48.058,48.056  C512,308.051,490.442,329.609,463.944,329.609z M432.948,301.933h30.994c11.238,0,20.382-9.143,20.382-20.382  s-9.143-20.38-20.382-20.38h-27.405L432.948,301.933z"/>
<path style="fill:#D4A8B4;" d="M426.428,192.435H85.572c-15.94,0-28.981-13.041-28.981-28.981l0,0  c0-15.94,13.041-28.981,28.981-28.981h340.854c15.939,0,28.981,13.041,28.981,28.981l0,0  C455.408,179.394,442.366,192.435,426.428,192.435z"/>
<g>
	<path style="fill:#3C1146;" d="M426.428,206.273H85.572c-23.61,0-42.817-19.208-42.817-42.819s19.208-42.819,42.817-42.819h340.855   c23.61,0,42.817,19.208,42.817,42.819S450.038,206.273,426.428,206.273z M85.572,148.313c-8.348,0-15.141,6.793-15.141,15.143   s6.793,15.143,15.141,15.143h340.855c8.348,0,15.141-6.793,15.141-15.143c0-8.35-6.793-15.143-15.141-15.143L85.572,148.313   L85.572,148.313z"/>
	<path style="fill:#3C1146;" d="M306.669,98.174c-7.641,0-13.838-6.195-13.838-13.838c0-9.786-7.962-17.749-17.749-17.749h-38.165   c-9.786,0-17.749,7.962-17.749,17.749c0,7.643-6.197,13.838-13.838,13.838s-13.838-6.195-13.838-13.838   c0-25.048,20.378-45.424,45.424-45.424h38.165c25.048,0,45.424,20.378,45.424,45.424C320.507,91.979,314.312,98.174,306.669,98.174   z"/>
</g>
</svg>